<svg xmlns="http://www.w3.org/2000/svg" viewBox="0 0 512 512" width="512" height="512">
  <rect width="512" height="512" rx="112" fill="#FFF8EF"/>
  <circle cx="256" cy="248" r="150" fill="#FFD56B"/>
  <!-- bear ears -->
  <circle cx="160" cy="150" r="46" fill="#A9744F"/>
  <circle cx="352" cy="150" r="46" fill="#A9744F"/>
  <!-- bear face -->
  <circle cx="256" cy="252" r="120" fill="#C18A5E"/>
  <ellipse cx="256" cy="300" rx="64" ry="50" fill="#F1D9C0"/>
  <circle cx="214" cy="232" r="16" fill="#3A3A4A"/>
  <circle cx="298" cy="232" r="16" fill="#3A3A4A"/>
  <ellipse cx="256" cy="280" rx="16" ry="12" fill="#3A3A4A"/>
  <path d="M256 292 Q256 320 232 322" stroke="#3A3A4A" stroke-width="7" fill="none" stroke-linecap="round"/>
  <path d="M256 292 Q256 320 280 322" stroke="#3A3A4A" stroke-width="7" fill="none" stroke-linecap="round"/>
  <!-- smile -->
  <path d="M214 326 Q256 360 298 326" stroke="#3A3A4A" stroke-width="9" fill="none" stroke-linecap="round"/>
  <!-- little heart -->
  <path d="M396 392c-14-14-36 0-36 16 0 16 36 36 36 36s36-20 36-36c0-16-22-30-36-16z" fill="#FF8C7A"/>
</svg>
